{
  "asset": {
    "version": "2.0",
    "generator": "THREE.GLTFExporter"
  },
  "scenes": [
    {
      "nodes": [
        0
      ]
    }
  ],
  "scene": 0,
  "nodes": [
    {
      "children": [
        8
      ],
      "matrix": [
        0.01,
        0,
        0,
        0,
        0,
        0.01,
        0,
        0,
        0,
        0,
        0.01,
        0,
        0,
        0,
        0,
        1
      ]
    },
    {
      "matrix": [
        0.5142964454107685,
        -0.6193444549740085,
        -0.5932213855979882,
        0,
        0.7693343678007967,
        0.6388463277820016,
        0,
        0,
        0.3789773037510255,
        -0.45638559965494085,
        0.8050393702603638,
        0,
        0,
        0,
        0,
        1
      ],
      "name": "Directional Light Main",
      "extensions": {
        "KHR_lights_punctual": {
          "light": 0
        }
      }
    },
    {
      "matrix": [
        0.732157196503968,
        0.4443506794934963,
        -0.5162347462551491,
        0,
        0.5188302509818792,
        -0.8548772839806192,
        0,
        0,
        -0.441317357775026,
        -0.2678382029651257,
        -0.8564471301597559,
        0,
        0,
        0,
        0,
        1
      ],
      "name": "Directional Light Blue",
      "extensions": {
        "KHR_lights_punctual": {
          "light": 1
        }
      }
    },
    {
      "matrix": [
        0.6405143112717623,
        -0.6857605053197973,
        -0.3456500345719589,
        0,
        -0.7308047543244337,
        -0.6825865593877484,
        0,
        0,
        -0.2359360678507297,
        0.25260268859759244,
        -0.9383634975852394,
        0,
        0,
        0,
        0,
        1
      ],
      "name": "Directional Light Red",
      "extensions": {
        "KHR_lights_punctual": {
          "light": 2
        }
      }
    },
    {
      "matrix": [
        1.0205921488655019,
        0,
        0.03349526975327956,
        0,
        0,
        1.0000000305787367,
        0,
        0,
        -0.03351693709613224,
        0,
        1.0212523471611146,
        0,
        -11.812314728913648,
        41.427285507516686,
        -4.429575712798491,
        1
      ],
      "name": "male_tshirt",
      "mesh": 0
    },
    {
      "name": "male_tshirt",
      "children": [
        4
      ]
    },
    {
      "matrix": [
        1,
        0,
        0,
        0,
        0,
        1,
        -6.123233995736765e-17,
        0,
        0,
        6.123233995736765e-17,
        1,
        0,
        -3.410605131648481e-13,
        -7.591400587449092e-13,
        1227.737663154897,
        1
      ],
      "camera": 0
    },
    {
      "matrix": [
        1,
        0,
        0,
        0,
        0,
        1,
        0,
        0,
        0,
        0,
        1,
        0,
        0,
        1,
        0,
        1
      ],
      "name": "Default Ambient Light"
    },
    {
      "name": "Scene",
      "children": [
        1,
        2,
        3,
        5,
        6,
        7
      ]
    }
  ],
  "extensions": {
    "KHR_lights_punctual": {
      "lights": [
        {
          "name": "Directional Light Main",
          "color": [
            1,
            1,
            1
          ],
          "intensity": 0.7,
          "type": "directional"
        },
        {
          "name": "Directional Light Blue",
          "color": [
            0.37519752477750856,
            0.3183972997572816,
            1
          ],
          "intensity": 10,
          "type": "directional"
        },
        {
          "name": "Directional Light Red",
          "color": [
            1,
            0.38671875,
            0.38671875
          ],
          "intensity": 10,
          "type": "directional"
        }
      ]
    }
  },
  "bufferViews": [
    {
      "buffer": 0,
      "byteOffset": 0,
      "byteLength": 688128,
      "target": 34962,
      "byteStride": 12
    },
    {
      "buffer": 0,
      "byteOffset": 688128,
      "byteLength": 688128,
      "target": 34962,
      "byteStride": 12
    },
    {
      "buffer": 0,
      "byteOffset": 1376256,
      "byteLength": 344064,
      "target": 34963
    }
  ],
  "buffers": [
    {
      "byteLength": 1720320,
      "uri": "data:application/octet-stream;base64,"
    }
  ],
  "accessors": [
    {
      "bufferView": 0,
      "componentType": 5126,
      "count": 57344,
      "max": [
        230.26763916015625,
        206.6407470703125,
        112.670654296875
      ],
      "min": [
        -234.49221801757812,
        -289.60540771484375,
        -101.489013671875
      ],
      "type": "VEC3"
    },
    {
      "bufferView": 1,
      "componentType": 5126,
      "count": 57344,
      "max": [
        0.9998050332069397,
        0.9999711513519287,
        0.9999517798423767
      ],
      "min": [
        -0.9999966621398926,
        -0.9993428587913513,
        -0.9998546838760376
      ],
      "type": "VEC3"
    },
    {
      "bufferView": 2,
      "componentType": 5125,
      "count": 86016,
      "max": [
        57343
      ],
      "min": [
        0
      ],
      "type": "SCALAR"
    }
  ],
  "meshes": [
    {
      "primitives": [
        {
          "mode": 4,
          "attributes": {
            "POSITION": 0,
            "NORMAL": 1
          },
          "extras": {
            "type": "SubdivGeometry",
            "parameters": {
              "width": 473.00001525878906,
              "height": 498.99993896484375,
              "depth": 220.19915771484375
            }
          },
          "indices": 2
        }
      ]
    }
  ],
  "cameras": [
    {
      "type": "perspective",
      "perspective": {
        "aspectRatio": 1.9738372093023255,
        "yfov": 0.7853981633974483,
        "zfar": 100000,
        "znear": 70
      }
    }
  ],
  "extensionsUsed": [
    "KHR_lights_punctual"
  ]
}